STARTFONT 2.1
FONT -FontForge-Amble-Book-R-Normal--9-90-75-75-P-45-ISO10646-1
SIZE 9 75 75
FONTBOUNDINGBOX 7 9 0 -2
COMMENT "Generated by fontforge, http://fontforge.sourceforge.net"
COMMENT "Font data copyright Punchcut 2009"
STARTPROPERTIES 38
FOUNDRY "FontForge"
FAMILY_NAME "Amble"
WEIGHT_NAME "Book"
SLANT "R"
SETWIDTH_NAME "Normal"
ADD_STYLE_NAME ""
PIXEL_SIZE 9
POINT_SIZE 90
RESOLUTION_X 75
RESOLUTION_Y 75
SPACING "P"
AVERAGE_WIDTH 45
CHARSET_REGISTRY "ISO10646"
CHARSET_ENCODING "1"
FONTNAME_REGISTRY ""
CHARSET_COLLECTIONS "ISO10646-1"
FONT_NAME "Amble-Regular"
FACE_NAME "Amble Regular"
COPYRIGHT "Font data copyright Punchcut 2009"
FONT_VERSION "1.00000; 2009"
FONT_ASCENT 7
FONT_DESCENT 2
UNDERLINE_POSITION -1
UNDERLINE_THICKNESS 1
X_HEIGHT 3
RAW_ASCENT 755
RAW_DESCENT 244
NORM_SPACE 2
RELATIVE_WEIGHT 40
RELATIVE_SETWIDTH 50
SUPERSCRIPT_X 0
SUPERSCRIPT_Y 4
SUPERSCRIPT_SIZE 5
SUBSCRIPT_X 0
SUBSCRIPT_Y 1
SUBSCRIPT_SIZE 5
AVG_LOWERCASE_WIDTH 46
AVG_UPPERCASE_WIDTH 55
ENDPROPERTIES
CHARS 51
STARTCHAR space
ENCODING 32
SWIDTH 243 0
DWIDTH 2 0
BBX 1 1 0 0
BITMAP
00
ENDCHAR
STARTCHAR asterisk
ENCODING 42
SWIDTH 451 0
DWIDTH 4 0
BBX 4 3 0 3
BITMAP
40
F0
60
ENDCHAR
STARTCHAR plus
ENCODING 43
SWIDTH 520 0
DWIDTH 5 0
BBX 5 4 0 1
BITMAP
20
20
F8
20
ENDCHAR
STARTCHAR comma
ENCODING 44
SWIDTH 253 0
DWIDTH 2 0
BBX 1 2 1 -1
BITMAP
80
80
ENDCHAR
STARTCHAR hyphen
ENCODING 45
SWIDTH 380 0
DWIDTH 3 0
BBX 3 1 0 3
BITMAP
E0
ENDCHAR
STARTCHAR period
ENCODING 46
SWIDTH 257 0
DWIDTH 2 0
BBX 1 1 1 0
BITMAP
80
ENDCHAR
STARTCHAR slash
ENCODING 47
SWIDTH 421 0
DWIDTH 4 0
BBX 4 7 0 -1
BITMAP
30
20
20
40
40
40
80
ENDCHAR
STARTCHAR zero
ENCODING 48
SWIDTH 578 0
DWIDTH 5 0
BBX 4 6 0 0
BITMAP
60
90
90
90
90
60
ENDCHAR
STARTCHAR one
ENCODING 49
SWIDTH 578 0
DWIDTH 5 0
BBX 3 6 1 0
BITMAP
C0
40
40
40
40
E0
ENDCHAR
STARTCHAR two
ENCODING 50
SWIDTH 578 0
DWIDTH 5 0
BBX 4 6 1 0
BITMAP
E0
20
20
40
80
F0
ENDCHAR
STARTCHAR three
ENCODING 51
SWIDTH 578 0
DWIDTH 6 0
BBX 4 6 1 0
BITMAP
F0
10
60
10
10
E0
ENDCHAR
STARTCHAR four
ENCODING 52
SWIDTH 578 0
DWIDTH 5 0
BBX 5 6 0 0
BITMAP
10
30
50
90
F8
10
ENDCHAR
STARTCHAR five
ENCODING 53
SWIDTH 578 0
DWIDTH 5 0
BBX 4 6 1 0
BITMAP
F0
80
F0
10
10
E0
ENDCHAR
STARTCHAR six
ENCODING 54
SWIDTH 578 0
DWIDTH 5 0
BBX 4 6 1 0
BITMAP
70
80
E0
A0
A0
60
ENDCHAR
STARTCHAR seven
ENCODING 55
SWIDTH 578 0
DWIDTH 5 0
BBX 5 6 0 0
BITMAP
F8
10
10
20
20
60
ENDCHAR
STARTCHAR eight
ENCODING 56
SWIDTH 578 0
DWIDTH 6 0
BBX 5 6 0 0
BITMAP
78
48
70
88
88
70
ENDCHAR
STARTCHAR nine
ENCODING 57
SWIDTH 578 0
DWIDTH 5 0
BBX 4 6 0 0
BITMAP
60
90
90
F0
10
E0
ENDCHAR
STARTCHAR colon
ENCODING 58
SWIDTH 307 0
DWIDTH 3 0
BBX 1 4 1 0
BITMAP
80
00
00
80
ENDCHAR
STARTCHAR C
ENCODING 67
SWIDTH 547 0
DWIDTH 5 0
BBX 4 6 0 0
BITMAP
70
80
80
80
80
70
ENDCHAR
STARTCHAR M
ENCODING 77
SWIDTH 826 0
DWIDTH 7 0
BBX 5 6 1 0
BITMAP
88
D8
E8
A8
88
88
ENDCHAR
STARTCHAR P
ENCODING 80
SWIDTH 590 0
DWIDTH 5 0
BBX 3 6 1 0
BITMAP
E0
A0
A0
E0
80
80
ENDCHAR
STARTCHAR T
ENCODING 84
SWIDTH 580 0
DWIDTH 5 0
BBX 5 6 0 0
BITMAP
F8
20
20
20
20
20
ENDCHAR
STARTCHAR underscore
ENCODING 95
SWIDTH 443 0
DWIDTH 4 0
BBX 4 1 0 -1
BITMAP
F0
ENDCHAR
STARTCHAR a
ENCODING 97
SWIDTH 539 0
DWIDTH 5 0
BBX 4 4 0 0
BITMAP
70
70
90
F0
ENDCHAR
STARTCHAR b
ENCODING 98
SWIDTH 591 0
DWIDTH 5 0
BBX 3 6 1 0
BITMAP
80
80
E0
A0
A0
E0
ENDCHAR
STARTCHAR c
ENCODING 99
SWIDTH 469 0
DWIDTH 4 0
BBX 3 4 0 0
BITMAP
60
80
80
60
ENDCHAR
STARTCHAR d
ENCODING 100
SWIDTH 579 0
DWIDTH 5 0
BBX 3 6 1 0
BITMAP
20
20
E0
A0
A0
E0
ENDCHAR
STARTCHAR e
ENCODING 101
SWIDTH 542 0
DWIDTH 5 0
BBX 4 4 1 0
BITMAP
E0
E0
80
70
ENDCHAR
STARTCHAR f
ENCODING 102
SWIDTH 376 0
DWIDTH 3 0
BBX 4 6 0 0
BITMAP
70
40
E0
40
40
40
ENDCHAR
STARTCHAR g
ENCODING 103
SWIDTH 581 0
DWIDTH 6 0
BBX 5 6 0 -2
BITMAP
78
48
38
78
88
F0
ENDCHAR
STARTCHAR h
ENCODING 104
SWIDTH 588 0
DWIDTH 5 0
BBX 3 6 1 0
BITMAP
80
80
E0
A0
A0
A0
ENDCHAR
STARTCHAR i
ENCODING 105
SWIDTH 285 0
DWIDTH 3 0
BBX 1 6 1 0
BITMAP
80
00
80
80
80
80
ENDCHAR
STARTCHAR j
ENCODING 106
SWIDTH 298 0
DWIDTH 3 0
BBX 2 8 0 -2
BITMAP
40
00
40
40
40
40
40
C0
ENDCHAR
STARTCHAR k
ENCODING 107
SWIDTH 524 0
DWIDTH 5 0
BBX 4 6 1 0
BITMAP
80
80
B0
C0
A0
90
ENDCHAR
STARTCHAR l
ENCODING 108
SWIDTH 286 0
DWIDTH 3 0
BBX 1 6 1 0
BITMAP
80
80
80
80
80
80
ENDCHAR
STARTCHAR m
ENCODING 109
SWIDTH 896 0
DWIDTH 8 0
BBX 6 4 1 0
BITMAP
FC
94
94
94
ENDCHAR
STARTCHAR n
ENCODING 110
SWIDTH 588 0
DWIDTH 5 0
BBX 3 4 1 0
BITMAP
E0
A0
A0
A0
ENDCHAR
STARTCHAR o
ENCODING 111
SWIDTH 581 0
DWIDTH 5 0
BBX 3 4 1 0
BITMAP
E0
A0
A0
E0
ENDCHAR
STARTCHAR p
ENCODING 112
SWIDTH 583 0
DWIDTH 5 0
BBX 3 6 1 -2
BITMAP
E0
A0
A0
E0
80
80
ENDCHAR
STARTCHAR q
ENCODING 113
SWIDTH 579 0
DWIDTH 5 0
BBX 3 6 1 -2
BITMAP
E0
A0
A0
E0
20
20
ENDCHAR
STARTCHAR r
ENCODING 114
SWIDTH 372 0
DWIDTH 3 0
BBX 3 4 1 0
BITMAP
E0
80
80
80
ENDCHAR
STARTCHAR s
ENCODING 115
SWIDTH 474 0
DWIDTH 4 0
BBX 3 4 1 0
BITMAP
E0
80
40
C0
ENDCHAR
STARTCHAR t
ENCODING 116
SWIDTH 396 0
DWIDTH 4 0
BBX 3 6 0 0
BITMAP
40
40
E0
40
40
60
ENDCHAR
STARTCHAR u
ENCODING 117
SWIDTH 588 0
DWIDTH 5 0
BBX 3 4 1 0
BITMAP
A0
A0
A0
E0
ENDCHAR
STARTCHAR v
ENCODING 118
SWIDTH 496 0
DWIDTH 4 0
BBX 4 4 0 0
BITMAP
90
50
60
20
ENDCHAR
STARTCHAR w
ENCODING 119
SWIDTH 743 0
DWIDTH 7 0
BBX 6 4 0 0
BITMAP
94
B4
6C
48
ENDCHAR
STARTCHAR x
ENCODING 120
SWIDTH 518 0
DWIDTH 5 0
BBX 4 4 0 0
BITMAP
D0
20
60
D0
ENDCHAR
STARTCHAR y
ENCODING 121
SWIDTH 513 0
DWIDTH 5 0
BBX 4 6 0 -2
BITMAP
90
50
60
20
20
40
ENDCHAR
STARTCHAR z
ENCODING 122
SWIDTH 505 0
DWIDTH 5 0
BBX 4 4 0 0
BITMAP
70
20
40
F0
ENDCHAR
STARTCHAR bar
ENCODING 124
SWIDTH 200 0
DWIDTH 2 0
BBX 1 8 0 -1
BITMAP
80
80
80
80
80
80
80
80
ENDCHAR
STARTCHAR ring
ENCODING 730
SWIDTH 311 0
DWIDTH 3 0
BBX 2 2 0 5
BITMAP
C0
C0
ENDCHAR
ENDFONT
